# xmcd
#
# Track frame offsets: 
#        150
#        22023
#        56571
#        76419
#        99342
#        120915
#        143463
#        167436
#        200409
#        236907
#
# Disc length: 3659 seconds
#
# Revision: 0
# Processed by: cddbd v1.5.2PL0 Copyright (c) Steve Scherf et al.
# Submitted via: ExactAudioCopy v0.99pb5
#
DISCID=760e490a
DTITLE=Pebbleman - Call Of Fate
DYEAR=2014
DGENRE=Blues
TTITLE0=Loaded
TTITLE1=Live or Die
TTITLE2=Love Is A Powerful Thing
TTITLE3=Energy
TTITLE4=I've Got A Girl
TTITLE5=Dead Man's Eyes
TTITLE6=Count On You
TTITLE7=Baby Calls My Name
TTITLE8=Call Of Fate
TTITLE9=Brand New Day
EXTD=
EXTT0=
EXTT1=
EXTT2=
EXTT3=
EXTT4=
EXTT5=
EXTT6=
EXTT7=
EXTT8=
EXTT9=
PLAYORDER=
